<svg xmlns="http://www.w3.org/2000/svg" fill="none" viewBox="0 0 200 250">
  <path fill="#B84877" fill-opacity=".1" d="M8 9h180v200H8z"/>
  <path fill="#B84877" fill-rule="evenodd" d="M200 0H0v250h200V0Zm-18 18H17v183h165V18Z" clip-rule="evenodd"/>
  <path fill="#D798B2" d="M149.685 75.605a31.13 31.13 0 0 0-7.7-5.787l-.135-.078A27.378 27.378 0 0 0 128.028 66a26.67 26.67 0 0 0-6.58.811 27.188 27.188 0 0 0-10.58 5.29c-.485.356-.959.75-1.412 1.168-4.748 3.712-8.329 8.705-10.376 14.392-2.199-6.158-6.197-11.464-11.566-15.252l-1.71-1.322a1.857 1.857 0 0 0-.282-.207A27.062 27.062 0 0 0 69.969 66c-4.341 0-8.497.992-12.381 2.964l-.065.035a31.604 31.604 0 0 0-9.12 6.436c-11.633 11.812-12.606 30.689-2.171 42.077 10.43 11.372 41.718 41.292 51.367 49.432L98.85 168l1.257-1.051c9.651-8.077 41.06-37.887 51.574-49.257 10.492-11.358 9.594-30.24-1.998-42.084l.001-.003Z"/>
  <path fill="#EE8543" d="M145 164.957c-3.393 2.26-10 1.518-10 3.826 0 2.358 6.964 1.739 10 4.347 3.036 2.609 2.341 8.87 4.643 8.87 2.272 0 1.25-5.739 4.821-8.87C158.036 170 165 171.003 165 168.783c0-2.176-7.353-.776-10.536-3.826-3.432-3.29-2.783-10.957-4.821-10.957-2.067 0-1.25 8.696-4.643 10.957Z"/>
  <path fill="#8AB062" d="M38.667 41.565C35.387 43.745 29 43.03 29 45.255c0 2.274 6.732 1.677 9.667 4.192C41.6 51.963 40.93 58 43.155 58c2.196 0 1.208-5.534 4.66-8.553C51.269 46.43 58 47.396 58 45.255c0-2.098-7.108-.748-10.184-3.69C44.496 38.393 45.126 31 43.154 31c-1.998 0-1.209 8.385-4.488 10.565Z"/>
  <path fill="#4EADBC" d="M168.533 26h-30.066a3.467 3.467 0 0 0 0 6.935h26.598v26.597a3.468 3.468 0 0 0 6.935 0V29.468A3.467 3.467 0 0 0 168.533 26Zm-106 154.065H35.935v-26.597a3.468 3.468 0 1 0-6.935 0v30.064A3.468 3.468 0 0 0 32.467 187h30.066a3.468 3.468 0 0 0 0-6.935Z"/>
  <path fill="#fff" d="M38.64 221.656c-.374-.823-1.109-1.234-2.203-1.234-1.27 0-2.124.411-2.562 1.234-.24.469-.36 1.167-.36 2.094V234H29v-17h4.328v2.484c.552-.885 1.073-1.515 1.563-1.89.864-.667 1.984-1 3.359-1 1.302 0 2.354.286 3.156.859.646.531 1.136 1.214 1.469 2.047.583-1 1.307-1.734 2.172-2.203.917-.469 1.937-.703 3.062-.703.75 0 1.49.146 2.22.437.728.292 1.39.802 1.983 1.531.48.594.803 1.323.97 2.188.103.573.156 1.411.156 2.516L53.406 234h-4.562v-10.844c0-.646-.104-1.177-.313-1.594-.396-.791-1.125-1.187-2.187-1.187-1.23 0-2.078.51-2.547 1.531-.24.542-.36 1.193-.36 1.953V234h-4.484v-10.141c0-1.01-.104-1.744-.312-2.203Zm33.11-2.531c1.438 1.802 2.156 3.932 2.156 6.391 0 2.5-.719 4.64-2.156 6.422-1.438 1.77-3.62 2.656-6.547 2.656-2.927 0-5.11-.886-6.547-2.656-1.437-1.782-2.156-3.922-2.156-6.422 0-2.459.719-4.589 2.156-6.391 1.438-1.802 3.62-2.703 6.547-2.703 2.927 0 5.11.901 6.547 2.703Zm-6.563 1.063c-1.302 0-2.307.463-3.015 1.39-.698.917-1.047 2.229-1.047 3.938 0 1.708.349 3.026 1.047 3.953.708.927 1.713 1.39 3.016 1.39 1.302 0 2.302-.463 3-1.39.697-.927 1.046-2.245 1.046-3.953 0-1.709-.349-3.021-1.046-3.938-.698-.927-1.698-1.39-3-1.39Zm21.485 1.468c-.375-.823-1.11-1.234-2.203-1.234-1.271 0-2.125.411-2.563 1.234-.24.469-.36 1.167-.36 2.094V234h-4.515v-17h4.328v2.484c.553-.885 1.073-1.515 1.563-1.89.865-.667 1.984-1 3.36-1 1.301 0 2.353.286 3.156.859.645.531 1.135 1.214 1.468 2.047.584-1 1.307-1.734 2.172-2.203.917-.469 1.938-.703 3.063-.703.75 0 1.49.146 2.218.437.73.292 1.391.802 1.985 1.531.479.594.802 1.323.968 2.188.105.573.157 1.411.157 2.516L101.438 234h-4.563v-10.844c0-.646-.104-1.177-.313-1.594-.395-.791-1.124-1.187-2.187-1.187-1.23 0-2.078.51-2.547 1.531-.24.542-.36 1.193-.36 1.953V234h-4.484v-10.141c0-1.01-.104-1.744-.312-2.203ZM120.156 229c-.114 1.01-.64 2.036-1.578 3.078-1.458 1.656-3.5 2.484-6.125 2.484-2.167 0-4.078-.697-5.734-2.093-1.657-1.396-2.485-3.667-2.485-6.813 0-2.948.745-5.208 2.235-6.781 1.5-1.573 3.442-2.359 5.828-2.359 1.417 0 2.693.265 3.828.796 1.135.532 2.073 1.37 2.813 2.516.666 1.011 1.098 2.182 1.296 3.516.115.781.162 1.906.141 3.375h-11.656c.062 1.708.599 2.906 1.609 3.593.615.428 1.354.641 2.219.641.917 0 1.661-.26 2.234-.781.313-.281.589-.672.828-1.172h4.547Zm-4.406-5.219c-.073-1.177-.432-2.067-1.078-2.672-.636-.614-1.427-.921-2.375-.921-1.031 0-1.833.322-2.406.968-.563.646-.917 1.521-1.063 2.625h6.922Zm15.656-3.515c-1.51 0-2.547.64-3.109 1.922-.292.677-.438 1.541-.438 2.593V234h-4.437v-17h4.297v2.484c.573-.875 1.114-1.505 1.625-1.89.916-.688 2.078-1.032 3.484-1.032 1.761 0 3.198.464 4.313 1.391 1.125.917 1.687 2.443 1.687 4.578V234h-4.562v-10.359c0-.896-.12-1.584-.36-2.063-.437-.875-1.271-1.312-2.5-1.312Zm19.344 10.562v3.328l-2.109.078c-2.105.073-3.542-.291-4.313-1.093-.5-.511-.75-1.297-.75-2.36v-10.484h-2.375v-3.172h2.375v-4.75h4.406v4.75h2.766v3.172h-2.766v9c0 .698.089 1.135.266 1.312.177.167.719.25 1.625.25h.422c.156-.01.307-.02.453-.031Zm17.062-11.703c1.438 1.802 2.157 3.932 2.157 6.391 0 2.5-.719 4.64-2.157 6.422-1.437 1.77-3.619 2.656-6.546 2.656s-5.11-.886-6.547-2.656c-1.438-1.782-2.157-3.922-2.157-6.422 0-2.459.719-4.589 2.157-6.391 1.437-1.802 3.62-2.703 6.547-2.703 2.927 0 5.109.901 6.546 2.703Zm-6.562 1.063c-1.302 0-2.307.463-3.016 1.39-.698.917-1.046 2.229-1.046 3.938 0 1.708.348 3.026 1.046 3.953.709.927 1.714 1.39 3.016 1.39s2.302-.463 3-1.39c.698-.927 1.047-2.245 1.047-3.953 0-1.709-.349-3.021-1.047-3.938-.698-.927-1.698-1.39-3-1.39Z"/>
</svg>